<svg id="Calque_1" data-name="Calque 1" xmlns="http://www.w3.org/2000/svg" xmlns:xlink="http://www.w3.org/1999/xlink" viewBox="0 0 160.74 84.9"><defs><style>.cls-1{fill:none;}.cls-2{fill:#5887da;}.cls-3{fill:#a6bbd6;}.cls-4{fill:#2760ab;}.cls-5{clip-path:url(#clip-path);}.cls-6{fill:#fff;}.cls-7{fill:#3d4543;}.cls-8{fill:#5f6765;}</style><clipPath id="clip-path" transform="translate(-273.48 -230.22)"><path class="cls-1" d="M297.83,243.15a40.87,40.87,0,0,0-4.52,2A32.08,32.08,0,0,0,286.4,273c4,19.87,22.3,31,40.77,27.44a40.77,40.77,0,0,0,14.3-5.79l0-41.4a37.62,37.62,0,0,0-28.68-12.93,41.79,41.79,0,0,0-15,2.81"/></clipPath></defs><path class="cls-2" d="M341.43,294.7a40.62,40.62,0,0,1-14.26,5.76C308.7,304,290.38,292.89,286.4,273a32.08,32.08,0,0,1,6.91-27.82,41.43,41.43,0,0,0-13,10.53c-7.25,9-9.68,20.67-2.43,31.67.79,1.2,1.6,2.38,2.43,3.53a87.13,87.13,0,0,0,9,10.77c8,8.07,17.16,13.41,26.79,13.41a26.59,26.59,0,0,0,9.62-1.82,38.62,38.62,0,0,0,15.65-11.59" transform="translate(-273.48 -230.22)"/><path class="cls-3" d="M341.41,235a33.73,33.73,0,0,0-28.48-2.83,50.81,50.81,0,0,0-8.68,4,41.2,41.2,0,0,0-10.94,9,40.87,40.87,0,0,1,4.52-2,41.79,41.79,0,0,1,15-2.81,37.62,37.62,0,0,1,28.64,12.88" transform="translate(-273.48 -230.22)"/><path class="cls-4" d="M341.49,253.27a37.62,37.62,0,0,0-28.68-12.93,41.79,41.79,0,0,0-15,2.81,40.87,40.87,0,0,0-4.52,2A32.08,32.08,0,0,0,286.4,273c4,19.87,22.3,31,40.77,27.44a40.69,40.69,0,0,0,14.3-5.79" transform="translate(-273.48 -230.22)"/><g class="cls-5"><path class="cls-6" d="M341.52,254.65h-.29L330.63,269,326,254.65h-8.72l6.46,19.92a6.26,6.26,0,0,1-1,5.06l-8.2,11.09h10.17L341.5,268" transform="translate(-273.48 -230.22)"/><path class="cls-6" d="M285.48,272.68a18,18,0,0,0,18,18H308l6.12-8.31H303.51c-5,0-9.66-4.75-9.66-9.73a10.18,10.18,0,0,1,9.66-9.68h10.87l-2.7-8.35h-8.17a18,18,0,0,0-18,18" transform="translate(-273.48 -230.22)"/></g><rect class="cls-7" x="67.76" width="0.43" height="84.86"/><path class="cls-8" d="M358.15,263.31h-7.94v-2.46h18.57v2.46h-7.93v21.17h-2.7Z" transform="translate(-273.48 -230.22)"/><path class="cls-8" d="M371.75,260.85h17.09v2.43H374.42v8.07h12.9v2.43h-12.9v8.27H389v2.43H371.75Z" transform="translate(-273.48 -230.22)"/><path class="cls-8" d="M391.3,272.73v-.06a11.91,11.91,0,0,1,12-12.23,12.29,12.29,0,0,1,9.21,3.75l-1.82,2a10.27,10.27,0,0,0-7.43-3.24c-5.23,0-9.15,4.25-9.15,9.69v.07c0,5.47,3.95,9.75,9.15,9.75,3.24,0,5.37-1.25,7.63-3.41l1.76,1.73a12.35,12.35,0,0,1-9.46,4.15A11.8,11.8,0,0,1,391.3,272.73Z" transform="translate(-273.48 -230.22)"/><path class="cls-8" d="M415.24,260.85h2.67v10.5h13.64v-10.5h2.67v23.63h-2.67V273.85H417.91v10.63h-2.67Z" transform="translate(-273.48 -230.22)"/></svg>